{"title":"The Maze Runner 2014 CAM XviD MP3 - Idiocracy","uid":11132565,"size":1180006400,"categoryP":"video","categoryS":"movies","magnet":"?xt=urn:btih:ee19b930c5b8f43fe53c2650e63e92b785f1547d&amp;dn=The+Maze+Runner+2014+CAM+XviD+MP3+-+Idiocracy&amp;tr=udp%3A%2F%2Ftracker.openbittorrent.com%3A80&amp;tr=udp%3A%2F%2Fopen.demonii.com%3A1337&amp;tr=udp%3A%2F%2Ftracker.coppersurfer.tk%3A6969&amp;tr=udp%3A%2F%2Fexodus.desync.com%3A6969","seeders":0,"leechers":1,"uploader":"Satafakap","files":2,"time":1412070144,"description":"General\n\nComplete name                : The.Maze.Runner.2014.CAM.XviD.MP3-Idiocracy.avi\nFormat                       : AVI\nFormat/Info                  : Audio Video Interleave\nFile size                    : 1.08 GiB\nDuration                     : 1h 46mn\nOverall bit rate             : 1 450 Kbps\nWriting application          : VirtualDubMod 1.5.10.3 | www.virtualdub-fr.org\nWriting library              : VirtualDubMod build 2550/release\nSource                       : The.Maze.Runner.2014.CAM.x264.AAC-KiNGDOM\nSample                       : Yes\n\nVideo\nID                                       : 0\nFormat                                   : MPEG-4 Visual\nFormat profile                           : Advanced Simple@L5\nFormat settings, BVOP                    : 2\nFormat settings, QPel                    : No\nFormat settings, GMC                     : No warppoints\nFormat settings, Matrix                  : Default (H.263)\nCodec ID                                 : XVID\nCodec ID/Hint                            : XviD\nDuration                                 : 1h 46mn\nBit rate                                 : 1 310 Kbps\nWidth                                    : 720 pixels\nHeight                                   : 304 pixels\nDisplay aspect ratio                     : 2.35:1\nFrame rate                               : 29.970 fps\nColor space                              : YUV\nChroma subsampling                       : 4:2:0\nBit depth                                : 8 bits\nScan type                                : Progressive\nCompression mode                         : Lossy\nBits/(Pixel*Frame)                       : 0.200\nStream size                              : 998 MiB (90%)\nWriting library                          : XviD 1.2.1 (UTC 2008-12-04)\n\nAudio\nID                                       : 1\nFormat                                   : MPEG Audio\nFormat version                           : Version 1\nFormat profile                           : Layer 3\nCodec ID                                 : 55\nCodec ID/Hint                            : MP3\nDuration                                 : 1h 46mn\nBit rate mode                            : Constant\nBit rate                                 : 128 Kbps\nChannel(s)                               : 2 channels\nSampling rate                            : 48.0 KHz\nCompression mode                         : Lossy\nStream size                              : 97.4 MiB (9%)\nAlignment                                : Aligned on interleaves\nInterleave, duration                     : 33 ms (1.00 video frame)\nInterleave, preload duration             : 504 ms\nWriting library                          : LAME3.99r\nEncoding settings                        : -m s -V 4 -q 0 -lowpass 17 -b 128","torrent":{"xt":"urn:btih:ee19b930c5b8f43fe53c2650e63e92b785f1547d","amp;dn":"The+Maze+Runner+2014+CAM+XviD+MP3+-+Idiocracy","amp;tr":["udp%3A%2F%2Ftracker.openbittorrent.com%3A80","udp%3A%2F%2Fopen.demonii.com%3A1337","udp%3A%2F%2Ftracker.coppersurfer.tk%3A6969","udp%3A%2F%2Fexodus.desync.com%3A6969"],"infoHash":"ee19b930c5b8f43fe53c2650e63e92b785f1547d","infoHashBuffer":{"type":"Buffer","data":[238,25,185,48,197,184,244,63,229,60,38,80,230,62,146,183,133,241,84,125]},"announce":[],"urlList":[]}}